<?xml version="1.0" encoding="UTF-8"?>
<svg version="1.1" xmlns="http://www.w3.org/2000/svg" width="666" height="375">
<path d="M0 0 C1.9580316 1.69071684 1.9580316 1.69071684 5.03515625 3.61328125 C8.05484312 5.67215866 10.28510134 7.8138039 12.78515625 10.48828125 C13.54828125 11.29265625 14.31140625 12.09703125 15.09765625 12.92578125 C15.92265625 13.81265625 16.74765625 14.69953125 17.59765625 15.61328125 C18.38785156 16.46148437 19.17804688 17.3096875 19.9921875 18.18359375 C21.78515625 20.48828125 21.78515625 20.48828125 21.78515625 23.48828125 C22.44515625 23.48828125 23.10515625 23.48828125 23.78515625 23.48828125 C28.6913645 30.16781778 32.26428535 38.01643307 35.78515625 45.48828125 C36.34203125 46.66970703 36.34203125 46.66970703 36.91015625 47.875 C49.06334631 75.83683183 47.79713715 109.00957539 36.97265625 136.98828125 C34.03443578 144.20027695 30.65892839 150.38547092 25.78515625 156.48828125 C24.36565641 158.50712547 22.94903944 160.52799947 21.53515625 162.55078125 C18.16038505 167.36320498 18.16038505 167.36320498 14.78515625 168.48828125 C14.47578125 169.26171875 14.16640625 170.03515625 13.84765625 170.83203125 C12.06344462 175.29256033 8.29607109 177.40381868 4.51660156 180.19873047 C2.55479861 181.65984767 0.6210059 183.1551453 -1.31640625 184.6484375 C-10.80128693 191.84060147 -20.06378398 197.31043188 -31.21484375 201.48828125 C-30.13961291 208.15471245 -28.15355941 212.77096234 -24.45703125 218.421875 C-23.21484375 220.48828125 -23.21484375 220.48828125 -23.21484375 222.48828125 C-22.55484375 222.48828125 -21.89484375 222.48828125 -21.21484375 222.48828125 C-20.88484375 221.49828125 -20.55484375 220.50828125 -20.21484375 219.48828125 C-16.67693972 223.1800072 -16.62368492 226.5821872 -16.21484375 231.48828125 C-19.21484375 233.48828125 -19.21484375 233.48828125 -21.56640625 233.6484375 C-25.88196932 231.75799173 -27.36320209 227.92932158 -29.58984375 223.92578125 C-32.93483311 218.1613715 -36.19732027 212.94759712 -40.77734375 208.0703125 C-44.25358455 204.24455836 -46.42865106 200.43824854 -46.58984375 195.17578125 C-46.21484375 191.48828125 -46.21484375 191.48828125 -44.21484375 189.48828125 C-43.74046875 188.31265625 -43.26609375 187.13703125 -42.77734375 185.92578125 C-42.26171875 184.79140625 -41.74609375 183.65703125 -41.21484375 182.48828125 C-40.22484375 182.15828125 -39.23484375 181.82828125 -38.21484375 181.48828125 C-37.88484375 179.50828125 -37.55484375 177.52828125 -37.21484375 175.48828125 C-38.39046875 175.30265625 -38.39046875 175.30265625 -39.58984375 175.11328125 C-42.21484375 174.48828125 -42.21484375 174.48828125 -44.21484375 172.48828125 C-44.32441406 171.69164062 -44.43398438 170.895 -44.546875 170.07421875 C-45.44076874 166.61364766 -46.95767282 166.034307 -49.90234375 164.11328125 C-52.37109375 162.08203125 -52.37109375 162.08203125 -54.21484375 159.48828125 C-54.51946948 154.22260799 -53.72315564 149.5656439 -52.21484375 144.48828125 C-49.3986612 141.6720987 -47.14477012 142.00151994 -43.21484375 141.61328125 C-33.73398198 140.51259926 -33.73398198 140.51259926 -25.21484375 136.48828125 C-22.87385383 132.13163536 -23.49043649 129.28747937 -24.21484375 124.48828125 C-23.55484375 123.82828125 -22.89484375 123.16828125 -22.21484375 122.48828125 C-22.04803266 119.40480299 -22.04803266 119.40480299 -22.21484375 116.48828125 C-21.22484375 116.15828125 -20.23484375 115.82828125 -19.21484375 115.48828125 C-19.58609375 113.63203125 -19.58609375 113.63203125 -19.96484375 111.73828125 C-20.45527318 107.8355682 -20.45527318 107.8355682 -18.52734375 105.05078125 C-16.33128571 103.56695825 -14.81693686 102.86000884 -12.21484375 102.48828125 C-13.23670921 98.17373821 -15.05583033 95.18710003 -17.65234375 91.67578125 C-20.84370547 87.26517277 -23.32580141 82.92255257 -24.21484375 77.48828125 C-23.88484375 76.49828125 -23.55484375 75.50828125 -23.21484375 74.48828125 C-22.7786558 69.14497887 -23.86224046 65.06222699 -25.4765625 60.05859375 C-28.22160051 50.50179476 -28.22160051 50.50179476 -26.21484375 46.48828125 C-25.73707476 39.91895764 -26.30165897 33.47954805 -29.21484375 27.48828125 C-31.9296262 24.85866845 -34.85549915 23.18245849 -38.21484375 21.48828125 C-39.20484375 20.91078125 -40.19484375 20.33328125 -41.21484375 19.73828125 C-44.45314929 18.38898728 -47.54142112 17.7052291 -50.97265625 17.03515625 C-53.17995886 16.49678976 -54.99232834 15.73395403 -57.02734375 14.73828125 C-60.00504804 13.15586637 -60.00504804 13.15586637 -62.15234375 14.23828125 C-62.83296875 14.65078125 -63.51359375 15.06328125 -64.21484375 15.48828125 C-65.60390358 15.72070268 -67.00161682 15.90425131 -68.40234375 16.05078125 C-71.99675314 16.06289659 -71.99675314 16.06289659 -73.21484375 17.48828125 C-74.9653293 17.48224509 -76.71569577 17.43196507 -78.46484375 17.36328125 C-88.87891969 17.30143994 -99.49077197 19.55034018 -108.21484375 25.48828125 C-110.16985232 28.01808832 -110.16985232 28.01808832 -111.21484375 30.48828125 C-112.20484375 31.14828125 -113.19484375 31.80828125 -114.21484375 32.48828125 C-114.48296875 33.45765625 -114.75109375 34.42703125 -115.02734375 35.42578125 C-116.21484375 38.48828125 -116.21484375 38.48828125 -119.21484375 40.17578125 C-120.20484375 40.60890625 -121.19484375 41.04203125 -122.21484375 41.48828125 C-124.20582221 44.47474894 -125.15609301 47.08515387 -126.21484375 50.48828125 C-126.87484375 50.48828125 -127.53484375 50.48828125 -128.21484375 50.48828125 C-130.75672987 70.34892017 -127.39625661 85.45072285 -115.58789062 101.43603516 C-108.11270136 111.61743998 -106.52956443 122.05173058 -107.21484375 134.48828125 C-107.87484375 134.48828125 -108.53484375 134.48828125 -109.21484375 134.48828125 C-109.3128125 135.33390625 -109.41078125 136.17953125 -109.51171875 137.05078125 C-111.50884734 152.20141194 -116.97863903 157.72251708 -128.5703125 167.46875 C-131.64827878 170.0847326 -134.01846307 172.18143643 -136.21484375 175.61328125 C-138.49175156 178.88633623 -140.58793401 180.23403118 -143.9921875 182.1875 C-147.17426898 184.04977264 -150.13761144 186.21011358 -153.13671875 188.3515625 C-155.21484375 189.48828125 -155.21484375 189.48828125 -159.21484375 189.48828125 C-157.88867945 185.50978836 -156.30018244 183.30138418 -153.21484375 180.48828125 C-152.47234375 179.74578125 -151.72984375 179.00328125 -150.96484375 178.23828125 C-150.38734375 177.66078125 -149.80984375 177.08328125 -149.21484375 176.48828125 C-150.42140625 175.34359375 -150.42140625 175.34359375 -151.65234375 174.17578125 C-154.21484375 171.48828125 -154.21484375 171.48828125 -155.21484375 168.48828125 C-155.82457031 168.20210937 -156.43429688 167.9159375 -157.0625 167.62109375 C-159.98548646 166.08267983 -160.95648308 164.17535507 -162.65234375 161.36328125 C-163.25820312 160.36941406 -163.8640625 159.37554687 -164.48828125 158.3515625 C-165.34292969 156.93423828 -165.34292969 156.93423828 -166.21484375 155.48828125 C-167.06749855 154.17479857 -167.92148464 152.86217827 -168.77734375 151.55078125 C-184.83479697 125.56306091 -188.9453945 93.11782531 -182.48828125 63.49609375 C-180.80668362 56.4836445 -178.24773784 50.02511837 -175.21484375 43.48828125 C-174.87582031 42.72644531 -174.53679687 41.96460938 -174.1875 41.1796875 C-169.54891222 31.28536078 -163.07972819 21.12845471 -155.21484375 13.48828125 C-154.43367188 12.70195313 -153.6525 11.915625 -152.84765625 11.10546875 C-145.21628177 3.51938432 -137.61215649 -3.20292896 -128.21484375 -8.51171875 C-127.17972656 -9.09695312 -126.14460938 -9.6821875 -125.078125 -10.28515625 C-86.43097223 -30.84310743 -34.28303341 -28.73433436 0 0 Z " fill="#4650FE" transform="translate(403.21484375,101.51171875)"/>
<path d="M0 0 C0.33 0 0.66 0 1 0 C1.33 2.31 1.66 4.62 2 7 C2.66 7 3.32 7 4 7 C4 8.32 4 9.64 4 11 C4.66 11 5.32 11 6 11 C6.28875 11.78375 6.5775 12.5675 6.875 13.375 C8.06706264 16.15647948 9.39016114 17.46052716 11.625 19.4375 C13 21 13 21 13 24 C13.66 24 14.32 24 15 24 C15 24.66 15 25.32 15 26 C15.66 26 16.32 26 17 26 C16.67 23.69 16.34 21.38 16 19 C23 27.44827586 23 27.44827586 23 31 C23.66 31 24.32 31 25 31 C25.33 30.01 25.66 29.02 26 28 C29.53790403 31.69172595 29.59115883 35.09390595 30 40 C27 42 27 42 24.6484375 42.16015625 C20.33287443 40.26971048 18.85164166 36.44104033 16.625 32.4375 C13.28001064 26.67309025 10.01752348 21.45931587 5.4375 16.58203125 C1.90052016 12.68943115 -0.22174729 8.92109815 -0.25 3.5625 C-0.1675 2.386875 -0.085 1.21125 0 0 Z " fill="#9166FF" transform="translate(357,293)"/>
<path d="M0 0 C1.32 0.66 2.64 1.32 4 2 C3.46890625 2.43570312 2.9378125 2.87140625 2.390625 3.3203125 C-0.90848069 6.10167533 -3.65799609 8.46561889 -6 12.125 C-8.27690781 15.39805498 -10.37309026 16.74574993 -13.77734375 18.69921875 C-16.95942523 20.56149139 -19.92276769 22.72183233 -22.921875 24.86328125 C-25 26 -25 26 -29 26 C-26.95314949 19.85944846 -22.99718636 16.8867005 -18 13 C-17.67 13.99 -17.34 14.98 -17 16 C-17.66 16 -18.32 16 -19 16 C-18.67 16.66 -18.34 17.32 -18 18 C-17.443125 17.54625 -16.88625 17.0925 -16.3125 16.625 C-14 15 -14 15 -11.375 14.1875 C-8.66624167 13.17223358 -8.66624167 13.17223358 -7.875 9.9375 C-7.441875 8.4834375 -7.441875 8.4834375 -7 7 C-6.01 6.67 -5.02 6.34 -4 6 C-4 5.01 -4 4.02 -4 3 C-2.68 3 -1.36 3 0 3 C0 2.01 0 1.02 0 0 Z " fill="#8858FF" transform="translate(273,265)"/>
<path d="M0 0 C2.25640288 3.83487306 3.08706358 8.02132154 4.0625 12.3125 C4.23587891 13.04662109 4.40925781 13.78074219 4.58789062 14.53710938 C6.75393732 23.8901156 7.18270723 32.85675391 7.1875 42.4375 C7.19974609 43.72205078 7.21199219 45.00660156 7.22460938 46.33007812 C7.23477642 52.90815904 7.00916241 58.71838945 5 65 C4.67 65 4.34 65 4 65 C4.00523682 63.9577124 4.01047363 62.9154248 4.01586914 61.84155273 C4.03424589 57.89966727 4.04554881 53.95778541 4.05493164 50.01586914 C4.0598984 48.32380533 4.06667408 46.63174566 4.07543945 44.93969727 C4.12938779 34.24205953 3.88896364 23.66455704 3 13 C2.34 13 1.68 13 1 13 C-0.10228696 8.59085217 -0.07654536 4.51617599 0 0 Z " fill="#915FFE" transform="translate(441,153)"/>
<path d="M0 0 C0.33 0 0.66 0 1 0 C1.3155895 2.27040603 1.62728359 4.54135358 1.9375 6.8125 C2.03466309 7.49957031 2.13182617 8.18664062 2.23193359 8.89453125 C2.7670483 12.79023898 3.0476018 16.56459933 3.125 20.5 C3.6087491 27.05529392 7.04155549 32.25539476 10.28515625 37.8125 C12 41 12 41 12 44 C11.01 43.34 10.02 42.68 9 42 C9 41.01 9 40.02 9 39 C7.35 38.67 5.7 38.34 4 38 C3.86722656 37.28972656 3.73445313 36.57945312 3.59765625 35.84765625 C3.33275391 34.46900391 3.33275391 34.46900391 3.0625 33.0625 C2.88847656 32.14597656 2.71445312 31.22945312 2.53515625 30.28515625 C2.22285012 28.04710156 2.22285012 28.04710156 1 27 C-0.15699833 18.04397586 -0.12161444 9.01298127 0 0 Z " fill="#8F5DFD" transform="translate(272,157)"/>
<path d="M0 0 C2.30142435 1.78174788 3.80034391 3.16304165 4.48828125 6.046875 C4.72323102 8.0246611 4.86751458 10.01271872 5 12 C2 14 2 14 -0.5625 13.9375 C-3 13 -3 13 -4.3125 10.4375 C-4.539375 9.633125 -4.76625 8.82875 -5 8 C-4.01 8 -3.02 8 -2 8 C-2.33 7.401875 -2.66 6.80375 -3 6.1875 C-4 4 -4 4 -4 1 C-3.34 1 -2.68 1 -2 1 C-2 1.66 -2 2.32 -2 3 C-1.34 3 -0.68 3 0 3 C0 2.01 0 1.02 0 0 Z " fill="#9D66FF" transform="translate(382,321)"/>
<path d="M0 0 C2 2 2 2 2.875 4.375 C4.13027733 7.30398043 5.73257291 8.80815381 8 11 C8 11.66 8 12.32 8 13 C10.97 13.495 10.97 13.495 14 14 C13.34 14.66 12.68 15.32 12 16 C11.83318891 19.08347826 11.83318891 19.08347826 12 22 C8.69681013 18.87536093 6.18942663 15.9807757 4 12 C3.443125 11.113125 2.88625 10.22625 2.3125 9.3125 C1 7 1 7 1 5 C0.34 4.67 -0.32 4.34 -1 4 C-0.67 2.68 -0.34 1.36 0 0 Z " fill="#805FFE" transform="translate(360,287)"/>
<path d="M0 0 C2 1 4 2 6 3 C7.29553127 6.88659381 7.14791694 10.57606858 7.125 14.625 C7.12306641 15.43372559 7.12113281 16.24245117 7.11914062 17.07568359 C7.08017116 22.45022247 6.78858051 27.67708153 6 33 C3.6797034 28.9261968 4.22974637 26.62152177 5 22 C5.51240715 14.31389268 4.33475559 6.50213338 0 0 Z " fill="#955DFE" transform="translate(372,126)"/>
<path d="M0 0 C0.33 0 0.66 0 1 0 C1.33 2.31 1.66 4.62 2 7 C2.66 7 3.32 7 4 7 C4 8.32 4 9.64 4 11 C4.66 11 5.32 11 6 11 C6.28875 11.78375 6.5775 12.5675 6.875 13.375 C8.06706264 16.15647948 9.39016114 17.46052716 11.625 19.4375 C13 21 13 21 13 24 C13.66 24 14.32 24 15 24 C14.67 25.32 14.34 26.64 14 28 C12.04673414 25.34772276 10.10525346 22.68811868 8.1796875 20.015625 C6.85124295 18.1777053 5.50630428 16.35137884 4.1328125 14.546875 C0.39544099 9.43257715 -0.69166114 6.34022714 0 0 Z " fill="#A265FE" transform="translate(357,293)"/>
<path d="M0 0 C0.66 0.33 1.32 0.66 2 1 C1.21625 1.70125 0.4325 2.4025 -0.375 3.125 C-3.19029386 5.78645262 -3.19029386 5.78645262 -3.9375 9.1875 C-4.288125 10.115625 -4.63875 11.04375 -5 12 C-8.125 13.375 -8.125 13.375 -11 14 C-10.45276317 10.62537285 -9.9451 8.91765 -8 6 C-7.01 6 -6.02 6 -5 6 C-5 5.01 -5 4.02 -5 3 C-2.625 1.25 -2.625 1.25 0 0 Z " fill="#7D57FF" transform="translate(292,128)"/>
<path d="M0 0 C19.53191489 1.80851064 19.53191489 1.80851064 28 5 C28 5.33 28 5.66 28 6 C23.1666528 6.08333357 18.76307437 5.95261487 14 5 C14 4.34 14 3.68 14 3 C7.07 2.505 7.07 2.505 0 2 C0 1.34 0 0.68 0 0 Z " fill="#905DFD" transform="translate(340,78)"/>
<path d="M0 0 C0.66 0 1.32 0 2 0 C1.67 3.96 1.34 7.92 1 12 C0.34 12 -0.32 12 -1 12 C-1.33 14.31 -1.66 16.62 -2 19 C-2.66 18.67 -3.32 18.34 -4 18 C-4 16.02 -4 14.04 -4 12 C-3.01 11.67 -2.02 11.34 -1 11 C-1.20625 9.741875 -1.4125 8.48375 -1.625 7.1875 C-2.21335669 3.5985242 -2.16617415 3.24926122 0 0 Z " fill="#8E6BFF" transform="translate(385,206)"/>
<path d="M0 0 C1.32 0.66 2.64 1.32 4 2 C3.20335937 2.65355469 3.20335937 2.65355469 2.390625 3.3203125 C-1.89852116 6.93634448 -5.05605441 10.24439559 -8 15 C-8.99 15.495 -8.99 15.495 -10 16 C-9.57742724 14.5164999 -9.13643678 13.03823576 -8.6875 11.5625 C-8.44386719 10.73878906 -8.20023437 9.91507812 -7.94921875 9.06640625 C-7.63597656 8.38449219 -7.32273437 7.70257813 -7 7 C-6.01 6.67 -5.02 6.34 -4 6 C-4 5.01 -4 4.02 -4 3 C-2.68 3 -1.36 3 0 3 C0 2.01 0 1.02 0 0 Z " fill="#8B65FF" transform="translate(273,265)"/>
<path d="M0 0 C0.33 0 0.66 0 1 0 C2.22517308 5.66642551 2.09228867 11.23708518 2 17 C1.34 17 0.68 17 0 17 C-0.33 19.64 -0.66 22.28 -1 25 C-1.33 25 -1.66 25 -2 25 C-2.125 18.375 -2.125 18.375 -1 15 C-0.77281504 12.43365139 -0.58391816 9.88321893 -0.4375 7.3125 C-0.39431641 6.61060547 -0.35113281 5.90871094 -0.30664062 5.18554688 C-0.2008264 3.45724794 -0.09993419 1.7286489 0 0 Z " fill="#A066FE" transform="translate(294,219)"/>
<path d="M0 0 C2.18085057 3.27127586 2.24887859 4.27376723 2.1875 8.0625 C2.17783203 9.37927734 2.17783203 9.37927734 2.16796875 10.72265625 C2 13 2 13 1 15 C-1.32156597 15.40729228 -3.6568787 15.74438677 -6 16 C-5.195625 15.4225 -4.39125 14.845 -3.5625 14.25 C-0.99502593 12.29050587 -0.99502593 12.29050587 -0.125 10.1875 C0.0538159 7.05822184 -0.53349726 4.09058068 -1 1 C-0.67 0.67 -0.34 0.34 0 0 Z " fill="#9F6EFE" transform="translate(380,225)"/>
<path d="M0 0 C2.99324263 1.0975223 3.84610901 1.67682892 5.25 4.625 C5.4975 5.40875 5.745 6.1925 6 7 C6.66 7 7.32 7 8 7 C8 8.65 8 10.3 8 12 C7.67 10.68 7.34 9.36 7 8 C6.21625 7.87625 5.4325 7.7525 4.625 7.625 C2 7 2 7 0 5 C-0.125 2.375 -0.125 2.375 0 0 Z " fill="#A969FD" transform="translate(359,269)"/>
<path d="M0 0 C0.99 0.33 1.98 0.66 3 1 C1.68 4.3 0.36 7.6 -1 11 C-1.66 11 -2.32 11 -3 11 C-3.33 12.65 -3.66 14.3 -4 16 C-4.33 16 -4.66 16 -5 16 C-5 14.02 -5 12.04 -5 10 C-4.01 10 -3.02 10 -2 10 C-1.855625 8.906875 -1.71125 7.81375 -1.5625 6.6875 C-1 3 -1 3 0 0 Z " fill="#A56CFE" transform="translate(278,141)"/>
<path d="M0 0 C1.9375 1.0625 1.9375 1.0625 4 3 C4.75 6.6875 4.75 6.6875 5 10 C4.34 10 3.68 10 3 10 C3 9.34 3 8.68 3 8 C2.34 8 1.68 8 1 8 C1 7.01 1 6.02 1 5 C-0.32 4.34 -1.64 3.68 -3 3 C-2.01 2.01 -1.02 1.02 0 0 Z " fill="#4549FF" transform="translate(369,309)"/>
<path d="M0 0 C0.99 0 1.98 0 3 0 C4.32 2.64 5.64 5.28 7 8 C5.68 7.67 4.36 7.34 3 7 C2.01 7.495 2.01 7.495 1 8 C-0.35439668 5.29120665 -0.06501451 2.99066732 0 0 Z " fill="#5B4BFF" transform="translate(358,292)"/>
<path d="M0 0 C2.33944736 0.28730055 4.6739143 0.61936779 7 1 C3.92000054 4.67230705 1.7517398 5.56802365 -3 6 C-1.125 1.125 -1.125 1.125 0 0 Z " fill="#C06BFF" transform="translate(247,285)"/>
<path d="M0 0 C1.56393356 3.97376829 0.36145292 6.81377903 -0.9375 10.75 C-1.31777344 11.92046875 -1.69804687 13.0909375 -2.08984375 14.296875 C-2.39019531 15.18890625 -2.69054687 16.0809375 -3 17 C-3.33 17 -3.66 17 -4 17 C-4.56131481 10.54487966 -2.63463787 5.84560277 0 0 Z " fill="#8C5CFE" transform="translate(444,219)"/>
<path d="M0 0 C2.31 0.33 4.62 0.66 7 1 C6.01 1.33 5.02 1.66 4 2 C4 2.66 4 3.32 4 4 C5.32 4 6.64 4 8 4 C8.33 3.01 8.66 2.02 9 1 C9 2.32 9 3.64 9 5 C7.02 5.33 5.04 5.66 3 6 C0 1.125 0 1.125 0 0 Z " fill="#B571FD" transform="translate(377,329)"/>
<path d="M0 0 C0.33 0.99 0.66 1.98 1 3 C-0.98 3.66 -2.96 4.32 -5 5 C-5 5.66 -5 6.32 -5 7 C-7.375 8.6875 -7.375 8.6875 -10 10 C-10.66 9.67 -11.32 9.34 -12 9 C-10.37680325 7.68527053 -8.751385 6.37328338 -7.125 5.0625 C-6.22007812 4.33160156 -5.31515625 3.60070312 -4.3828125 2.84765625 C-2 1 -2 1 0 0 Z " fill="#A26AFE" transform="translate(268,98)"/>
<path d="M0 0 C4.6875 3.61328125 4.6875 3.61328125 6 5 C6 5.99 6 6.98 6 8 C6.66 8 7.32 8 8 8 C8 8.66 8 9.32 8 10 C6.68 9.67 5.36 9.34 4 9 C4.33 8.34 4.66 7.68 5 7 C3.68 6.67 2.36 6.34 1 6 C0.67 4.02 0.34 2.04 0 0 Z " fill="#865FFF" transform="translate(419,117)"/>
<path d="M0 0 C0.66 0 1.32 0 2 0 C2 0.66 2 1.32 2 2 C2.8971875 2.37125 2.8971875 2.37125 3.8125 2.75 C6.28647521 4.16370012 7.43370255 5.65055383 9 8 C8.67 8.66 8.34 9.32 8 10 C7.01 9.34 6.02 8.68 5 8 C5 7.01 5 6.02 5 5 C3.35 4.67 1.7 4.34 0 4 C0 2.68 0 1.36 0 0 Z " fill="#7057FE" transform="translate(276,191)"/>
<path d="M0 0 C0 3.92896395 -1.00299863 7.19893228 -2 11 C-2.66 11 -3.32 11 -4 11 C-4.33 11.99 -4.66 12.98 -5 14 C-6 12 -6 12 -5.29296875 9.6875 C-4.92816406 8.800625 -4.56335938 7.91375 -4.1875 7 C-3.83042969 6.113125 -3.47335938 5.22625 -3.10546875 4.3125 C-2 2 -2 2 0 0 Z " fill="#A977FE" transform="translate(233,136)"/>
<path d="M0 0 C-2.48952921 2.66735273 -4.63408134 4.55746343 -8 6 C-8 4.68 -8 3.36 -8 2 C-7.34 2 -6.68 2 -6 2 C-6 1.34 -6 0.68 -6 0 C-3.50907189 -1.24546405 -2.58919267 -0.7767578 0 0 Z " fill="#7D5DFF" transform="translate(402,285)"/>
<path d="M0 0 C0 0.66 0 1.32 0 2 C-1 3 -2 4 -3 5 C-3.33 5.99 -3.66 6.98 -4 8 C-4.66 8 -5.32 8 -6 8 C-6.33 7.01 -6.66 6.02 -7 5 C-7.66 4.67 -8.32 4.34 -9 4 C-2.25 0 -2.25 0 0 0 Z " fill="#805CFE" transform="translate(289,87)"/>
<path d="M0 0 C2.46598569 2.46598569 3.65194009 4.79033355 5 8 C4.6875 10.375 4.6875 10.375 4 12 C1 7.25 1 7.25 1 5 C0.34 4.67 -0.32 4.34 -1 4 C-0.67 2.68 -0.34 1.36 0 0 Z " fill="#AC73FF" transform="translate(360,287)"/>
<path d="M0 0 C0.66 0 1.32 0 2 0 C2 0.66 2 1.32 2 2 C2.66 2 3.32 2 4 2 C4.66 3.98 5.32 5.96 6 8 C5.01 8 4.02 8 3 8 C2.01 5.36 1.02 2.72 0 0 Z " fill="#4849FF" transform="translate(374,321)"/>
<path d="M0 0 C0.66 0.33 1.32 0.66 2 1 C0.7934375 2.0828125 0.7934375 2.0828125 -0.4375 3.1875 C-3.02292072 6.02515689 -3.68042813 7.27166147 -4 11 C-4.33 11 -4.66 11 -5 11 C-5.43666974 5.67262923 -5.43666974 5.67262923 -5 3 C-2.625 0.9375 -2.625 0.9375 0 0 Z " fill="#A266FE" transform="translate(292,128)"/>
<path d="M0 0 C0.99 0 1.98 0 3 0 C1.83857315 4.35535069 0.92300495 6.64619703 -3 9 C-2.01 6.03 -1.02 3.06 0 0 Z " fill="#9E68FE" transform="translate(266,272)"/>
<path d="M0 0 C0.33 0 0.66 0 1 0 C1.40178571 8.03571429 1.40178571 8.03571429 -2 12 C-1.85904936 10.3745692 -1.71207913 8.74965949 -1.5625 7.125 C-1.48128906 6.22007812 -1.40007812 5.31515625 -1.31640625 4.3828125 C-1 2 -1 2 0 0 Z " fill="#9F67FE" transform="translate(223,158)"/>
<path d="M0 0 C2.7972908 2.06756277 3.02692273 3.14440371 3.6875 6.6875 C3.790625 7.780625 3.89375 8.87375 4 10 C3.34 9.01 2.68 8.02 2 7 C1.01 6.34 0.02 5.68 -1 5 C-0.67 3.35 -0.34 1.7 0 0 Z " fill="#915FFE" transform="translate(290,208)"/>
<path d="M0 0 C0.66 0 1.32 0 2 0 C2 0.66 2 1.32 2 2 C2.66 2 3.32 2 4 2 C4.12375 2.61875 4.2475 3.2375 4.375 3.875 C4.87197356 6.19120832 4.87197356 6.19120832 7 8 C6.01 8 5.02 8 4 8 C0 2.74285714 0 2.74285714 0 0 Z " fill="#9B71FF" transform="translate(384,189)"/>
<path d="M0 0 C2.32472205 2.85306797 3.7508258 5.54074837 5 9 C4.01 8.67 3.02 8.34 2 8 C2 7.34 2 6.68 2 6 C1.34 6 0.68 6 0 6 C0 4.02 0 2.04 0 0 Z " fill="#9B6EFF" transform="translate(276,185)"/>
<path d="M0 0 C0.66 0.33 1.32 0.66 2 1 C1.67 1.66 1.34 2.32 1 3 C2.32 3.33 3.64 3.66 5 4 C2.69 4.33 0.38 4.66 -2 5 C-2 3.68 -2 2.36 -2 1 C-1.34 0.67 -0.68 0.34 0 0 Z " fill="#9862FF" transform="translate(250,282)"/>
<path d="M0 0 C4.75 0.75 4.75 0.75 7 3 C6.67 3.99 6.34 4.98 6 6 C6 5.34 6 4.68 6 4 C5.195625 3.71125 4.39125 3.4225 3.5625 3.125 C1 2 1 2 0 0 Z " fill="#835EFF" transform="translate(250,273)"/>
<path d="M0 0 C2.64 0.66 5.28 1.32 8 2 C7.67 2.99 7.34 3.98 7 5 C4.11424181 4.60196439 3.17810487 4.20990931 1.25 1.9375 C0.8375 1.298125 0.425 0.65875 0 0 Z " fill="#7A54FF" transform="translate(354,264)"/>
</svg>
